<?xml version="1.0" encoding="iso-8859-1"?>
<!-- Generator: Adobe Illustrator 19.0.0, SVG Export Plug-In . SVG Version: 6.00 Build 0)  -->
<svg version="1.1" id="Capa_1" xmlns="http://www.w3.org/2000/svg" xmlns:xlink="http://www.w3.org/1999/xlink" x="0px" y="0px"
	 viewBox="0 0 466.85 466.85" style="enable-background:new 0 0 466.85 466.85;" xml:space="preserve">
<g>
	<g>
		<path d="M463.925,122.425l-119.5-119.5c-3.9-3.9-10.2-3.9-14.1,0l-327.4,327.4c-3.9,3.9-3.9,10.2,0,14.1l119.5,119.5
			c3.9,3.9,10.2,3.9,14.1,0l327.4-327.4C467.825,132.625,467.825,126.325,463.925,122.425z M129.425,442.725l-105.3-105.3l79.1-79.1
			l35.9,35.9c3.8,4,10.2,4.1,14.1,0.2c4-3.8,4.1-10.2,0.2-14.1c-0.1-0.1-0.1-0.1-0.2-0.2l-35.9-35.8l26.1-26.1l56,56
			c3.9,3.9,10.3,3.9,14.1-0.1c3.9-3.9,3.9-10.2,0-14.1l-56-56l26.1-26.1l35.9,35.8c3.9,3.9,10.2,3.9,14.1,0c3.9-3.9,3.9-10.2,0-14.1
			l-35.9-35.8l26.1-26.1l56,56c3.9,3.9,10.2,3.9,14.1,0c3.9-3.9,3.9-10.2,0-14.1l-56-56l26.1-26.1l35.9,35.9
			c3.9,3.9,10.2,4,14.1,0.1c3.9-3.9,4-10.2,0.1-14.1c0,0,0,0-0.1-0.1l-35.6-36.2l26.1-26.1l56,56c3.9,3.9,10.2,3.9,14.1,0
			c3.9-3.9,3.9-10.2,0-14.1l-56-56l18.8-18.8l105.3,105.3L129.425,442.725z"/>
	</g>
</g>
<g>
	<g>
		<path d="M137.325,331.325c-12.6-12.5-32.9-12.5-45.4,0c-12.5,12.6-12.5,32.9,0,45.4s32.9,12.5,45.4,0
			S149.825,343.925,137.325,331.325z M124.225,362.325c-0.2,0.2-0.5,0.5-1.1,0.4c-4.7,4.7-12.4,4.7-17.2,0c-4.7-4.7-4.7-12.4,0-17.2
			c4.7-4.7,12.4-4.7,17.2,0C128.025,350.025,128.725,357.425,124.225,362.325z"/>
	</g>
</g>
<g>
</g>
<g>
</g>
<g>
</g>
<g>
</g>
<g>
</g>
<g>
</g>
<g>
</g>
<g>
</g>
<g>
</g>
<g>
</g>
<g>
</g>
<g>
</g>
<g>
</g>
<g>
</g>
<g>
</g>
</svg>
